<svg xmlns="http://www.w3.org/2000/svg" viewBox="0 0 59.98 59.98"><defs><style>.a{fill:#4197d3;}.b{fill:#fff;}</style></defs><title>Asset 6</title><circle class="a" cx="29.99" cy="29.99" r="29.99"/><path class="b" d="M20.68,37.87H4.93v-3L22.19,12.7h3.13V34.29H30v3.58h-4.7v8.52H20.68ZM8.21,34.29H20.68V18Z"/><path class="b" d="M40.54,47.16a9.83,9.83,0,0,1-5-1.29,11.89,11.89,0,0,1-3.85-3.61,17.65,17.65,0,0,1-2.47-5.51,26.7,26.7,0,0,1-.87-7,24.36,24.36,0,0,1,.87-6.6,18,18,0,0,1,2.47-5.43A12.43,12.43,0,0,1,35.56,14a9.91,9.91,0,0,1,9.95,0,12.51,12.51,0,0,1,3.84,3.67,18,18,0,0,1,2.47,5.43,24.36,24.36,0,0,1,.87,6.6,26.7,26.7,0,0,1-.87,7,17.65,17.65,0,0,1-2.47,5.51,12,12,0,0,1-3.84,3.61A9.77,9.77,0,0,1,40.54,47.16Zm0-1.64a3.92,3.92,0,0,0,2.91-1.29,9.88,9.88,0,0,0,2.06-3.48,23.9,23.9,0,0,0,1.23-5,42.45,42.45,0,0,0,.41-6,41.52,41.52,0,0,0-.41-5.93,22,22,0,0,0-1.23-4.91,9.47,9.47,0,0,0-2.06-3.34,4.06,4.06,0,0,0-5.84,0,9.61,9.61,0,0,0-2.06,3.34,22,22,0,0,0-1.22,4.91,43.11,43.11,0,0,0-.39,5.93,44.07,44.07,0,0,0,.39,6,23.92,23.92,0,0,0,1.22,5,10,10,0,0,0,2.06,3.48A4,4,0,0,0,40.54,45.52Z"/></svg>